<svg width="185" height="184" viewBox="0 0 185 184" fill="none" xmlns="http://www.w3.org/2000/svg">
<g filter="url(#filter0_d_226_38)">
<rect x="22" y="18" width="141" height="110" rx="12" fill="#E4E4E4"/>
</g>
<rect x="32" y="36" width="121" height="71" rx="3" fill="white"/>
<path d="M22 53H163V116C163 122.627 157.627 128 151 128H34C27.3726 128 22 122.627 22 116V53Z" fill="white"/>
<g filter="url(#filter1_d_226_38)">
<circle cx="150.5" cy="145.5" r="12.5" fill="#BDBDBD"/>
</g>
<path fill-rule="evenodd" clip-rule="evenodd" d="M146.714 141.2C146.563 141.2 146.417 141.263 146.31 141.376C146.203 141.488 146.143 141.641 146.143 141.8V146.951L147.453 145.576C147.56 145.463 147.706 145.4 147.857 145.4H151.286C151.437 145.4 151.583 145.337 151.69 145.224C151.797 145.112 151.857 144.959 151.857 144.8V141.8C151.857 141.641 151.797 141.488 151.69 141.376C151.583 141.263 151.437 141.2 151.286 141.2H146.714ZM145.502 140.527C145.824 140.19 146.26 140 146.714 140H151.286C151.74 140 152.176 140.19 152.498 140.527C152.819 140.865 153 141.323 153 141.8V144.8C153 145.277 152.819 145.735 152.498 146.073C152.176 146.41 151.74 146.6 151.286 146.6H148.094L145.975 148.824C145.812 148.996 145.566 149.047 145.353 148.954C145.139 148.861 145 148.643 145 148.4V141.8C145 141.323 145.181 140.865 145.502 140.527Z" fill="#F4F4F4"/>
<path fill-rule="evenodd" clip-rule="evenodd" d="M153.571 143.6C153.571 143.269 153.827 143 154.143 143H155.286C155.74 143 156.176 143.19 156.498 143.527C156.819 143.865 157 144.323 157 144.8V151.4C157 151.643 156.861 151.861 156.647 151.954C156.434 152.047 156.188 151.996 156.025 151.824L153.906 149.6H150.714C150.26 149.6 149.824 149.41 149.502 149.073C149.181 148.735 149 148.277 149 147.8V147.2C149 146.869 149.256 146.6 149.571 146.6C149.887 146.6 150.143 146.869 150.143 147.2V147.8C150.143 147.959 150.203 148.112 150.31 148.224C150.417 148.337 150.563 148.4 150.714 148.4H154.143C154.294 148.4 154.44 148.463 154.547 148.576L155.857 149.951V144.8C155.857 144.641 155.797 144.488 155.69 144.376C155.583 144.263 155.437 144.2 155.286 144.2H154.143C153.827 144.2 153.571 143.931 153.571 143.6Z" fill="#F4F4F4"/>
<path fill-rule="evenodd" clip-rule="evenodd" d="M156.854 26.1464C157.049 26.3417 157.049 26.6583 156.854 26.8536L153.854 29.8536C153.658 30.0488 153.342 30.0488 153.146 29.8536C152.951 29.6583 152.951 29.3417 153.146 29.1464L156.146 26.1464C156.342 25.9512 156.658 25.9512 156.854 26.1464Z" fill="#F4F4F4"/>
<path fill-rule="evenodd" clip-rule="evenodd" d="M153.146 26.1464C153.342 25.9512 153.658 25.9512 153.854 26.1464L156.854 29.1464C157.049 29.3417 157.049 29.6583 156.854 29.8536C156.658 30.0488 156.342 30.0488 156.146 29.8536L153.146 26.8536C152.951 26.6583 152.951 26.3417 153.146 26.1464Z" fill="#F4F4F4"/>
<rect x="41" y="46" width="47" height="7" rx="3.5" fill="#D9D9D9"/>
<rect x="41" y="117" width="5" height="5" rx="2.5" fill="#E6E6E6"/>
<rect x="117" y="117" width="28" height="5" rx="2.5" fill="#E6E6E6"/>
<rect x="41" y="60" width="104" height="12" rx="4" fill="#D9D9D9"/>
<rect x="41" y="77" width="104" height="12" rx="4" fill="#D9D9D9"/>
<rect x="41" y="95" width="104" height="12" rx="4" fill="#D9D9D9"/>
<defs>
<filter id="filter0_d_226_38" x="0.299999" y="0.299999" width="184.4" height="153.4" filterUnits="userSpaceOnUse" color-interpolation-filters="sRGB">
<feFlood flood-opacity="0" result="BackgroundImageFix"/>
<feColorMatrix in="SourceAlpha" type="matrix" values="0 0 0 0 0 0 0 0 0 0 0 0 0 0 0 0 0 0 127 0" result="hardAlpha"/>
<feOffset dy="4"/>
<feGaussianBlur stdDeviation="10.85"/>
<feComposite in2="hardAlpha" operator="out"/>
<feColorMatrix type="matrix" values="0 0 0 0 0 0 0 0 0 0 0 0 0 0 0 0 0 0 0.08 0"/>
<feBlend mode="normal" in2="BackgroundImageFix" result="effect1_dropShadow_226_38"/>
<feBlend mode="normal" in="SourceGraphic" in2="effect1_dropShadow_226_38" result="shape"/>
</filter>
<filter id="filter1_d_226_38" x="116.3" y="115.3" width="68.4" height="68.4" filterUnits="userSpaceOnUse" color-interpolation-filters="sRGB">
<feFlood flood-opacity="0" result="BackgroundImageFix"/>
<feColorMatrix in="SourceAlpha" type="matrix" values="0 0 0 0 0 0 0 0 0 0 0 0 0 0 0 0 0 0 127 0" result="hardAlpha"/>
<feOffset dy="4"/>
<feGaussianBlur stdDeviation="10.85"/>
<feComposite in2="hardAlpha" operator="out"/>
<feColorMatrix type="matrix" values="0 0 0 0 0 0 0 0 0 0 0 0 0 0 0 0 0 0 0.08 0"/>
<feBlend mode="normal" in2="BackgroundImageFix" result="effect1_dropShadow_226_38"/>
<feBlend mode="normal" in="SourceGraphic" in2="effect1_dropShadow_226_38" result="shape"/>
</filter>
</defs>
</svg>
