<svg width="211" height="154" viewBox="0 0 211 154" fill="none" xmlns="http://www.w3.org/2000/svg">
<g filter="url(#filter0_d_226_40)">
<rect x="22" y="18" width="167" height="110" rx="12" fill="white"/>
</g>
<circle cx="183" cy="30" r="15" fill="#BDBDBD"/>
<path d="M186 27L180 33" stroke="#F4F4F4" stroke-width="2" stroke-linecap="round" stroke-linejoin="round"/>
<path d="M180 27L186 33" stroke="#F4F4F4" stroke-width="2" stroke-linecap="round" stroke-linejoin="round"/>
<rect x="43" y="43" width="125" height="7" rx="3.5" fill="#D9D9D9"/>
<rect x="62" y="57" width="87" height="7" rx="3.5" fill="#D9D9D9"/>
<rect x="45" y="78" width="123" height="34" rx="4" fill="#F4F4F4"/>
<path d="M70.049 94.2734H68.4936C68.4652 94.0722 68.4072 93.8935 68.3196 93.7372C68.232 93.5786 68.1196 93.4437 67.9822 93.3324C67.8449 93.2211 67.6863 93.1359 67.5064 93.0767C67.3288 93.0175 67.1359 92.9879 66.9276 92.9879C66.5511 92.9879 66.2232 93.0814 65.9439 93.2685C65.6645 93.4531 65.4479 93.723 65.294 94.0781C65.1402 94.4309 65.0632 94.8594 65.0632 95.3636C65.0632 95.8821 65.1402 96.3177 65.294 96.6705C65.4503 97.0232 65.6681 97.2895 65.9474 97.4695C66.2268 97.6494 66.55 97.7393 66.9169 97.7393C67.1229 97.7393 67.3134 97.7121 67.4886 97.6577C67.6662 97.6032 67.8236 97.5239 67.9609 97.4197C68.0982 97.3132 68.2119 97.1842 68.3018 97.0327C68.3942 96.8812 68.4581 96.7083 68.4936 96.5142L70.049 96.5213C70.0088 96.8551 69.9081 97.1771 69.7472 97.4872C69.5885 97.795 69.3743 98.0708 69.1044 98.3146C68.8369 98.5561 68.5173 98.7479 68.1456 98.8899C67.7763 99.0296 67.3584 99.0994 66.892 99.0994C66.2434 99.0994 65.6634 98.9527 65.152 98.6591C64.643 98.3655 64.2405 97.9406 63.9446 97.3842C63.651 96.8279 63.5043 96.1544 63.5043 95.3636C63.5043 94.5705 63.6534 93.8958 63.9517 93.3395C64.25 92.7831 64.6548 92.3594 65.1662 92.0682C65.6776 91.7746 66.2528 91.6278 66.892 91.6278C67.3134 91.6278 67.7041 91.687 68.0639 91.8054C68.4261 91.9238 68.7469 92.0966 69.0263 92.3239C69.3056 92.5488 69.5329 92.8246 69.7081 93.1513C69.8857 93.478 69.9993 93.852 70.049 94.2734ZM71.1516 99V91.7273H72.6893V94.728H75.8107V91.7273H77.3448V99H75.8107V95.9957H72.6893V99H71.1516ZM79.8661 99H78.2184L80.729 91.7273H82.7106L85.2177 99H83.57L81.7482 93.3892H81.6914L79.8661 99ZM79.7631 96.1413H83.6552V97.3416H79.7631V96.1413ZM84.9274 92.995V91.7273H90.9004V92.995H88.6738V99H87.1539V92.995H84.9274ZM95.8356 99L93.7546 91.7273H95.4343L96.6381 96.7805H96.6985L98.0266 91.7273H99.4648L100.789 96.7912H100.853L102.057 91.7273H103.737L101.656 99H100.157L98.7724 94.245H98.7156L97.3342 99H95.8356ZM104.531 99V93.5455H106.044V99H104.531ZM105.291 92.8423C105.066 92.8423 104.874 92.7678 104.713 92.6186C104.554 92.4671 104.475 92.286 104.475 92.0753C104.475 91.867 104.554 91.6882 104.713 91.5391C104.874 91.3875 105.066 91.3118 105.291 91.3118C105.516 91.3118 105.708 91.3875 105.867 91.5391C106.028 91.6882 106.108 91.867 106.108 92.0753C106.108 92.286 106.028 92.4671 105.867 92.6186C105.708 92.7678 105.516 92.8423 105.291 92.8423ZM110.157 93.5455V94.6818H106.873V93.5455H110.157ZM107.618 92.2386H109.131V97.3239C109.131 97.4635 109.152 97.5724 109.195 97.6506C109.238 97.7263 109.297 97.7796 109.373 97.8104C109.451 97.8411 109.541 97.8565 109.642 97.8565C109.713 97.8565 109.784 97.8506 109.855 97.8388C109.926 97.8246 109.981 97.8139 110.019 97.8068L110.257 98.9325C110.181 98.9562 110.074 98.9834 109.937 99.0142C109.8 99.0473 109.633 99.0675 109.436 99.0746C109.072 99.0888 108.752 99.0402 108.478 98.929C108.205 98.8177 107.993 98.6449 107.842 98.4105C107.69 98.1761 107.616 97.8802 107.618 97.5227V92.2386ZM112.773 95.8466V99H111.26V91.7273H112.73V94.5078H112.794C112.917 94.1858 113.116 93.9337 113.391 93.7514C113.665 93.5668 114.01 93.4744 114.424 93.4744C114.803 93.4744 115.133 93.5573 115.415 93.723C115.699 93.8864 115.919 94.1219 116.075 94.4297C116.234 94.7351 116.312 95.1009 116.31 95.527V99H114.797V95.7969C114.799 95.4607 114.714 95.1991 114.541 95.0121C114.371 94.825 114.132 94.7315 113.824 94.7315C113.618 94.7315 113.436 94.7753 113.277 94.8629C113.121 94.9505 112.998 95.0784 112.908 95.2464C112.82 95.4122 112.775 95.6122 112.773 95.8466ZM121.097 99H119.449L121.96 91.7273H123.941L126.448 99H124.8L122.979 93.3892H122.922L121.097 99ZM120.994 96.1413H124.886V97.3416H120.994V96.1413ZM129.499 101.159C129.009 101.159 128.588 101.092 128.238 100.957C127.89 100.824 127.613 100.643 127.407 100.413C127.201 100.184 127.067 99.9257 127.006 99.6392L128.405 99.451C128.447 99.5599 128.515 99.6617 128.607 99.7564C128.7 99.8511 128.821 99.9268 128.973 99.9837C129.127 100.043 129.314 100.072 129.534 100.072C129.863 100.072 130.134 99.992 130.347 99.831C130.563 99.6723 130.67 99.406 130.67 99.032V98.0341H130.607C130.54 98.1856 130.441 98.3288 130.308 98.4638C130.176 98.5987 130.005 98.7088 129.797 98.794C129.589 98.8793 129.34 98.9219 129.051 98.9219C128.642 98.9219 128.269 98.8272 127.933 98.6378C127.599 98.446 127.332 98.1536 127.134 97.7607C126.937 97.3653 126.839 96.8658 126.839 96.2621C126.839 95.6442 126.939 95.1281 127.141 94.7138C127.342 94.2995 127.609 93.9893 127.943 93.7834C128.279 93.5774 128.647 93.4744 129.048 93.4744C129.353 93.4744 129.609 93.5265 129.815 93.6307C130.021 93.7325 130.186 93.8603 130.312 94.0142C130.44 94.1657 130.538 94.3149 130.607 94.4616H130.663V93.5455H132.165V99.0533C132.165 99.5173 132.052 99.9055 131.825 100.218C131.597 100.531 131.282 100.765 130.88 100.921C130.48 101.08 130.019 101.159 129.499 101.159ZM129.531 97.7855C129.774 97.7855 129.98 97.7251 130.148 97.6044C130.319 97.4813 130.449 97.3061 130.539 97.0788C130.631 96.8492 130.678 96.5746 130.678 96.255C130.678 95.9354 130.633 95.6584 130.543 95.424C130.453 95.1873 130.322 95.0038 130.152 94.8736C129.982 94.7434 129.774 94.6783 129.531 94.6783C129.282 94.6783 129.072 94.7457 128.902 94.8807C128.732 95.0133 128.603 95.1979 128.515 95.4347C128.427 95.6714 128.384 95.9448 128.384 96.255C128.384 96.5698 128.427 96.8421 128.515 97.0717C128.605 97.299 128.734 97.4754 128.902 97.6009C129.072 97.724 129.282 97.7855 129.531 97.7855ZM135.855 99.1065C135.294 99.1065 134.811 98.9929 134.406 98.7656C134.004 98.536 133.694 98.2116 133.476 97.7926C133.258 97.3712 133.149 96.8729 133.149 96.2976C133.149 95.7365 133.258 95.2441 133.476 94.8203C133.694 94.3965 134 94.0663 134.396 93.8295C134.793 93.5928 135.26 93.4744 135.795 93.4744C136.155 93.4744 136.49 93.5324 136.8 93.6484C137.112 93.7621 137.384 93.9337 137.616 94.1634C137.851 94.393 138.033 94.6818 138.163 95.0298C138.294 95.3755 138.359 95.7803 138.359 96.2443V96.6598H133.753V95.7223H136.935C136.935 95.5045 136.887 95.3116 136.793 95.1435C136.698 94.9754 136.567 94.844 136.398 94.7493C136.233 94.6522 136.04 94.6037 135.82 94.6037C135.59 94.6037 135.386 94.657 135.209 94.7635C135.034 94.8677 134.896 95.0085 134.797 95.1861C134.697 95.3613 134.647 95.5566 134.644 95.772V96.6634C134.644 96.9332 134.694 97.1664 134.793 97.3629C134.895 97.5594 135.038 97.7109 135.223 97.8175C135.408 97.924 135.627 97.9773 135.88 97.9773C136.048 97.9773 136.202 97.9536 136.342 97.9062C136.481 97.8589 136.601 97.7879 136.7 97.6932C136.8 97.5985 136.875 97.4825 136.928 97.3452L138.327 97.4375C138.256 97.7737 138.11 98.0672 137.89 98.3182C137.672 98.5668 137.39 98.7609 137.045 98.9006C136.701 99.0379 136.305 99.1065 135.855 99.1065ZM140.859 95.8466V99H139.346V93.5455H140.788V94.5078H140.852C140.972 94.1906 141.175 93.9396 141.459 93.755C141.743 93.5679 142.087 93.4744 142.492 93.4744C142.871 93.4744 143.201 93.5573 143.483 93.723C143.765 93.8887 143.984 94.1255 144.14 94.4332C144.296 94.7386 144.374 95.1032 144.374 95.527V99H142.862V95.7969C142.864 95.4631 142.779 95.2027 142.606 95.0156C142.433 94.8262 142.195 94.7315 141.892 94.7315C141.688 94.7315 141.509 94.7753 141.352 94.8629C141.198 94.9505 141.078 95.0784 140.99 95.2464C140.905 95.4122 140.861 95.6122 140.859 95.8466ZM148.468 93.5455V94.6818H145.183V93.5455H148.468ZM145.929 92.2386H147.442V97.3239C147.442 97.4635 147.463 97.5724 147.506 97.6506C147.548 97.7263 147.607 97.7796 147.683 97.8104C147.761 97.8411 147.851 97.8565 147.953 97.8565C148.024 97.8565 148.095 97.8506 148.166 97.8388C148.237 97.8246 148.291 97.8139 148.329 97.8068L148.567 98.9325C148.492 98.9562 148.385 98.9834 148.248 99.0142C148.11 99.0473 147.943 99.0675 147.747 99.0746C147.382 99.0888 147.063 99.0402 146.788 98.929C146.516 98.8177 146.304 98.6449 146.153 98.4105C146.001 98.1761 145.926 97.8802 145.929 97.5227V92.2386Z" fill="#4A4A4A"/>
<defs>
<filter id="filter0_d_226_40" x="0.299999" y="0.299999" width="210.4" height="153.4" filterUnits="userSpaceOnUse" color-interpolation-filters="sRGB">
<feFlood flood-opacity="0" result="BackgroundImageFix"/>
<feColorMatrix in="SourceAlpha" type="matrix" values="0 0 0 0 0 0 0 0 0 0 0 0 0 0 0 0 0 0 127 0" result="hardAlpha"/>
<feOffset dy="4"/>
<feGaussianBlur stdDeviation="10.85"/>
<feComposite in2="hardAlpha" operator="out"/>
<feColorMatrix type="matrix" values="0 0 0 0 0 0 0 0 0 0 0 0 0 0 0 0 0 0 0.08 0"/>
<feBlend mode="normal" in2="BackgroundImageFix" result="effect1_dropShadow_226_40"/>
<feBlend mode="normal" in="SourceGraphic" in2="effect1_dropShadow_226_40" result="shape"/>
</filter>
</defs>
</svg>
