<svg width="492" height="375" viewBox="0 0 492 375" fill="none" xmlns="http://www.w3.org/2000/svg">
<path d="M456 7C475.882 7 492 23.1178 492 43V252.9C492 271.378 477.243 286.473 458.771 286.892L454 287H442C421.013 287 404 304.013 404 325V346.774C401.265 362.587 387.605 374.685 371.02 374.938L367 375H58C38.1178 375 22 358.882 22 339V62.0205C24.5616 62.6584 27.2409 63 30 63C48.2254 63 63 48.2254 63 30C63 21.0555 59.4398 12.9437 53.6611 7H456Z" fill="#F9F9F9"/>
<circle cx="30" cy="30" r="30" fill="#59FB89"/>
<circle cx="458" cy="345" r="30" fill="#59FB89"/>
</svg>
